<svg version="1.1" xmlns="http://www.w3.org/2000/svg" xmlns:xlink="http://www.w3.org/1999/xlink" preserveAspectRatio="xMidYMid meet" viewBox="810 324 224 180">
  <g data-item-type="text" data-item="Business" id="logo__item--business" class="logo__item">
    <g class="logo__item__inner" transform="translate(842 495) scale(1 1) rotate(0 0 0)">
      <text data-part-id="logo__item--business" dy="0" dominant-baseline="auto" alignment-baseline="auto" font-family="Montserrat" font-size="32px" fill="#26A9E0" letter-spacing="0" font-weight="bold" font-style="normal" data-font-family="Montserrat" data-font-weight="bold" data-font-style="normal" data-ttf-url="/builder_assets/fontsttf/font-montserrat-bold-normal.ttf" data-font-filename="montserrat-bold-normal">
        GooCollage
      </text>
    </g>
  </g>
  <g data-item-type="image" data-item="Image" data-logo-item="" id="logo__item--logo_0" class="logo__item">
    <g class="logo__item__inner" transform="translate(860 320) scale(0.9 0.9) rotate(0 0 0)">
      <g>
        <rect x="80" y="65.9" fill="#26A9E0" width="17.8" height="18.6" data-part-id="logo__item--logo_0__0"></rect>
        <rect x="61.4" y="91.3" fill="#ffff00" width="15.6" height="16.3" data-part-id="logo__item--logo_0__1"></rect>
        <rect x="60.3" y="73.3" fill="#26A9E0" width="12.9" height="13.5" data-part-id="logo__item--logo_0__2"></rect>
        <rect x="52.6" y="55.2" fill="#26A9E0" width="10.8" height="11.2" data-part-id="logo__item--logo_0__3"></rect>
        <rect x="46.1" y="39.8" fill="#ffff00" width="10.8" height="11.2" data-part-id="logo__item--logo_0__4"></rect>
        <rect x="23.1" y="5.5" fill="#26A9E0" width="10.8" height="11.2" data-part-id="logo__item--logo_0__5"></rect>
        <rect x="43.1" y="21.9" fill="#26A9E0" width="10.8" height="11.2" data-part-id="logo__item--logo_0__6"></rect>
        <rect x="29.4" y="51.2" fill="#26A9E0" width="10.8" height="11.2" data-part-id="logo__item--logo_0__7"></rect>
        <rect x="22.1" y="29.2" fill="#ffff00" width="10.8" height="11.2" data-part-id="logo__item--logo_0__8"></rect>
        <rect x="39.1" y="71.2" fill="#ffff00" width="10.8" height="11.3" data-part-id="logo__item--logo_0__9"></rect>
        <g>
          <path fill="#ffff00" d="M118.7,51.2H96.5l31.1,53.9l0.3-0.8C130,98.5,131,92.3,131,86C131,73.3,126.9,61.3,118.7,51.2z" data-part-id="logo__item--logo_0__10"></path>
          <path fill="#ffff00" d="M32.4,121.4l0.5,0.6c10.6,12.5,26.1,19.6,42.4,19.6c2.1,0,4.2-0.1,6.5-0.5l11.4-19.7H32.4z" data-part-id="logo__item--logo_0__11"></path>
          <path fill="#26A9E0" d="M118.3,50.5l-0.5-0.6c-10.6-12.5-26.1-19.6-42.4-19.6c-2.8,0-5.6,0.2-8.7,0.8l0.2,19.4H118.3z" data-part-id="logo__item--logo_0__12"></path>
          <path fill="#26A9E0" d="M23.3,66L23,66.8c-2.3,6.1-3.4,12.6-3.4,19.2c0,12.7,4.2,24.6,12.3,34.7h22.9L23.3,66z" data-part-id="logo__item--logo_0__13"></path>
          <path fill="#26A9E0" d="M82.7,141.2l0.8-0.1c19.7-2.9,36.4-16.2,43.7-35.1L115.1,85L82.7,141.2z" data-part-id="logo__item--logo_0__14"></path>
        </g>
      </g>
    </g>
  </g>
</svg>
