<svg version="1.2" xmlns="http://www.w3.org/2000/svg" viewBox="0 0 121 121" width="121" height="121"><style>.a{fill:#26a9e0}.b{fill:#ff0}</style><path class="a" d="m64.1 53.6h15.7v16.4h-15.7z"/><path class="b" d="m47.7 76h13.8v14.4h-13.8z"/><path class="a" d="m46.8 60.1h11.3v11.9h-11.3z"/><path class="a" d="m40 44.2h9.5v9.8h-9.5z"/><path class="b" d="m34.3 30.6h9.5v9.9h-9.5z"/><path class="a" d="m14 0.3h9.5v9.9h-9.5z"/><path class="a" d="m31.6 14.8h9.5v9.9h-9.5z"/><path class="a" d="m19.5 40.6h9.6v9.9h-9.6z"/><path class="b" d="m13.1 21.2h9.5v9.9h-9.5z"/><path class="b" d="m28.1 58.3h9.5v9.9h-9.5z"/><path class="b" d="m109.1 71.3q0 8.4-2.7 16.2l-0.3 0.7-27.4-47.6h19.6c7.2 8.9 10.8 19.5 10.8 30.7z"/><path class="b" d="m75.8 102.5l-10.1 17.4c-2 0.4-3.8 0.4-5.7 0.4-14.4 0-28-6.2-37.4-17.2l-0.4-0.6z"/><path class="a" d="m52.6 40l-0.2-17.1c2.8-0.5 5.2-0.7 7.7-0.7 14.4 0 28 6.3 37.4 17.3l0.4 0.5z"/><path class="a" d="m41.9 101.9h-20.2c-7.1-8.9-10.8-19.4-10.8-30.6 0-5.8 1-11.5 3-16.9l0.3-0.7z"/><path class="a" d="m95.1 70.4l10.7 18.6c-6.5 16.6-21.2 28.4-38.6 30.9l-0.7 0.1z"/></svg>